;PTH Drill file created by EasyEDA 
M48
METRIC,LZ,000.000
;Holesize 1 = 0.519 METRIC
T01C0.519
;Holesize 2 = 0.800 METRIC
T02C0.800
;Holesize 3 = 0.900 METRIC
T03C0.900
;Holesize 4 = 1.006 METRIC
T04C1.006
%
G05
G90
T01
X049850Y013213
X049850Y011922
T02
X062884Y031488
X061615Y026410
X060345Y031490
X059075Y026410
X057805Y031490
X056535Y026410
X055265Y031490
X053995Y026410
X052725Y031490
X051455Y026410
X050185Y031490
X048915Y026410
X047645Y031490
X046375Y026410
X045105Y031490
X043835Y026410
X042565Y031490
X041295Y026410
X040025Y031490
X038755Y026410
X037485Y031490
X036215Y026410
X034945Y031490
X033675Y026410
X032405Y031490
X031135Y026410
X029865Y031490
X028595Y026410
X027325Y031490
X026055Y026410
X009279Y006820
X006739Y006819
X004199Y006819
X001659Y006819
T03
X001798Y014549
X001798Y022169
X004389Y014549
X004389Y022169
X006980Y014549
X006980Y022169
T04
X064948Y004826
X062367Y004826
X059787Y004826
X057206Y004826
X054625Y004826
X052045Y004826
X049464Y004826
X046883Y004826
X044303Y004826
X041722Y004826
X039141Y004826
X036561Y004826
X033980Y004826
X031399Y004826
X028819Y004826
X026238Y004826
X023658Y004826
X021077Y004826
X018496Y004826
X015916Y004826
X015916Y009987
X015916Y012567
X015916Y015148
X015916Y020309
X018496Y020309
X021077Y020309
X023658Y020309
X026238Y020309
X028819Y020309
X031399Y020309
X033980Y020309
X036561Y020309
X039141Y020309
X041722Y020309
X044303Y020309
X046883Y020309
X049464Y020309
X052045Y020309
X054625Y020309
X057206Y020309
X059787Y020309
X062367Y020309
X064948Y020309
X031399Y009987
X028819Y009987
X026238Y009987
X023658Y009987
X031399Y012567
X028819Y012567
X026238Y012567
X023658Y012567
X023658Y015148
M30
