G04 ---------------------------- Layer name :BOTTOM SILK LAYER*
G04 EasyEDA v5.3.14, Thu, 29 Mar 2018 20:23:58 GMT*
G04 Gerber Generator version 0.2*
G04 Scale: 100 percent, Rotated: No, Reflected: No *
G04 Dimensions in millimeters *
G04 leading zeros omitted , absolute positions ,3 integer and 3 decimal *
%FSLAX33Y33*%
%MOMM*%
G90*
G71D02*

%ADD20C,0.150114*%

%LPD*%
G54D20*
G01X61100Y29631D02*
G01X61100Y28200D01*
G01X61100Y29631D02*
G01X60486Y29631D01*
G01X60282Y29563D01*
G01X60213Y29495D01*
G01X60145Y29359D01*
G01X60145Y29154D01*
G01X60213Y29018D01*
G01X60282Y28950D01*
G01X60486Y28881D01*
G01X61100Y28881D01*
G01X59695Y29154D02*
G01X59695Y28472D01*
G01X59627Y28268D01*
G01X59491Y28200D01*
G01X59286Y28200D01*
G01X59150Y28268D01*
G01X58945Y28472D01*
G01X58945Y29154D02*
G01X58945Y28200D01*
G01X58495Y29631D02*
G01X58495Y28200D01*
G01X58495Y28950D02*
G01X58359Y29086D01*
G01X58222Y29154D01*
G01X58018Y29154D01*
G01X57882Y29086D01*
G01X57745Y28950D01*
G01X57677Y28745D01*
G01X57677Y28609D01*
G01X57745Y28404D01*
G01X57882Y28268D01*
G01X58018Y28200D01*
G01X58222Y28200D01*
G01X58359Y28268D01*
G01X58495Y28404D01*
G01X57227Y29631D02*
G01X57227Y28200D01*
G01X56777Y29631D02*
G01X56709Y29563D01*
G01X56641Y29631D01*
G01X56709Y29700D01*
G01X56777Y29631D01*
G01X56709Y29154D02*
G01X56709Y28200D01*
G01X55441Y28950D02*
G01X55509Y29086D01*
G01X55713Y29154D01*
G01X55918Y29154D01*
G01X56122Y29086D01*
G01X56191Y28950D01*
G01X56122Y28813D01*
G01X55986Y28745D01*
G01X55645Y28677D01*
G01X55509Y28609D01*
G01X55441Y28472D01*
G01X55441Y28404D01*
G01X55509Y28268D01*
G01X55713Y28200D01*
G01X55918Y28200D01*
G01X56122Y28268D01*
G01X56191Y28404D01*
G01X54991Y29631D02*
G01X54991Y28200D01*
G01X54991Y28881D02*
G01X54786Y29086D01*
G01X54650Y29154D01*
G01X54445Y29154D01*
G01X54309Y29086D01*
G01X54241Y28881D01*
G01X54241Y28200D01*
G01X53791Y28745D02*
G01X52972Y28745D01*
G01X52972Y28881D01*
G01X53041Y29018D01*
G01X53109Y29086D01*
G01X53245Y29154D01*
G01X53450Y29154D01*
G01X53586Y29086D01*
G01X53723Y28950D01*
G01X53791Y28745D01*
G01X53791Y28609D01*
G01X53723Y28404D01*
G01X53586Y28268D01*
G01X53450Y28200D01*
G01X53245Y28200D01*
G01X53109Y28268D01*
G01X52972Y28404D01*
G01X51704Y29631D02*
G01X51704Y28200D01*
G01X51704Y28950D02*
G01X51841Y29086D01*
G01X51977Y29154D01*
G01X52182Y29154D01*
G01X52318Y29086D01*
G01X52454Y28950D01*
G01X52522Y28745D01*
G01X52522Y28609D01*
G01X52454Y28404D01*
G01X52318Y28268D01*
G01X52182Y28200D01*
G01X51977Y28200D01*
G01X51841Y28268D01*
G01X51704Y28404D01*
G01X50204Y29154D02*
G01X50204Y28472D01*
G01X50136Y28268D01*
G01X50000Y28200D01*
G01X49795Y28200D01*
G01X49659Y28268D01*
G01X49454Y28472D01*
G01X49454Y29154D02*
G01X49454Y28200D01*
G01X49004Y29154D02*
G01X49004Y28200D01*
G01X49004Y28881D02*
G01X48800Y29086D01*
G01X48663Y29154D01*
G01X48459Y29154D01*
G01X48322Y29086D01*
G01X48254Y28881D01*
G01X48254Y28200D01*
G01X46986Y29631D02*
G01X46986Y28200D01*
G01X46986Y28950D02*
G01X47122Y29086D01*
G01X47259Y29154D01*
G01X47463Y29154D01*
G01X47600Y29086D01*
G01X47736Y28950D01*
G01X47804Y28745D01*
G01X47804Y28609D01*
G01X47736Y28404D01*
G01X47600Y28268D01*
G01X47463Y28200D01*
G01X47259Y28200D01*
G01X47122Y28268D01*
G01X46986Y28404D01*
G01X46536Y28745D02*
G01X45718Y28745D01*
G01X45718Y28881D01*
G01X45786Y29018D01*
G01X45854Y29086D01*
G01X45991Y29154D01*
G01X46195Y29154D01*
G01X46332Y29086D01*
G01X46468Y28950D01*
G01X46536Y28745D01*
G01X46536Y28609D01*
G01X46468Y28404D01*
G01X46332Y28268D01*
G01X46195Y28200D01*
G01X45991Y28200D01*
G01X45854Y28268D01*
G01X45718Y28404D01*
G01X45268Y29154D02*
G01X45268Y28200D01*
G01X45268Y28745D02*
G01X45200Y28950D01*
G01X45063Y29086D01*
G01X44927Y29154D01*
G01X44723Y29154D01*
G01X43018Y29631D02*
G01X43018Y28472D01*
G01X42950Y28268D01*
G01X42813Y28200D01*
G01X42677Y28200D01*
G01X43222Y29154D02*
G01X42745Y29154D01*
G01X42227Y29631D02*
G01X42227Y28200D01*
G01X42227Y28881D02*
G01X42023Y29086D01*
G01X41886Y29154D01*
G01X41682Y29154D01*
G01X41545Y29086D01*
G01X41477Y28881D01*
G01X41477Y28200D01*
G01X41027Y28745D02*
G01X40209Y28745D01*
G01X40209Y28881D01*
G01X40277Y29018D01*
G01X40345Y29086D01*
G01X40482Y29154D01*
G01X40686Y29154D01*
G01X40822Y29086D01*
G01X40959Y28950D01*
G01X41027Y28745D01*
G01X41027Y28609D01*
G01X40959Y28404D01*
G01X40822Y28268D01*
G01X40686Y28200D01*
G01X40482Y28200D01*
G01X40345Y28268D01*
G01X40209Y28404D01*
G01X37686Y29291D02*
G01X37754Y29427D01*
G01X37891Y29563D01*
G01X38027Y29631D01*
G01X38300Y29631D01*
G01X38436Y29563D01*
G01X38572Y29427D01*
G01X38641Y29291D01*
G01X38709Y29086D01*
G01X38709Y28745D01*
G01X38641Y28540D01*
G01X38572Y28404D01*
G01X38436Y28268D01*
G01X38300Y28200D01*
G01X38027Y28200D01*
G01X37891Y28268D01*
G01X37754Y28404D01*
G01X37686Y28540D01*
G01X37686Y28745D01*
G01X38027Y28745D02*
G01X37686Y28745D01*
G01X37236Y29631D02*
G01X37236Y28200D01*
G01X37236Y29631D02*
G01X36282Y28200D01*
G01X36282Y29631D02*
G01X36282Y28200D01*
G01X35832Y29631D02*
G01X35832Y28609D01*
G01X35763Y28404D01*
G01X35627Y28268D01*
G01X35423Y28200D01*
G01X35286Y28200D01*
G01X35081Y28268D01*
G01X34945Y28404D01*
G01X34877Y28609D01*
G01X34877Y29631D01*
G01X33377Y29631D02*
G01X33377Y28200D01*
G01X33377Y29631D02*
G01X32763Y29631D01*
G01X32559Y29563D01*
G01X32491Y29495D01*
G01X32423Y29359D01*
G01X32423Y29154D01*
G01X32491Y29018D01*
G01X32559Y28950D01*
G01X32763Y28881D01*
G01X33377Y28881D01*
G01X31973Y29154D02*
G01X31973Y28472D01*
G01X31904Y28268D01*
G01X31768Y28200D01*
G01X31563Y28200D01*
G01X31427Y28268D01*
G01X31222Y28472D01*
G01X31222Y29154D02*
G01X31222Y28200D01*
G01X30773Y29631D02*
G01X30773Y28200D01*
G01X30773Y28950D02*
G01X30636Y29086D01*
G01X30500Y29154D01*
G01X30295Y29154D01*
G01X30159Y29086D01*
G01X30023Y28950D01*
G01X29954Y28745D01*
G01X29954Y28609D01*
G01X30023Y28404D01*
G01X30159Y28268D01*
G01X30295Y28200D01*
G01X30500Y28200D01*
G01X30636Y28268D01*
G01X30773Y28404D01*
G01X29504Y29631D02*
G01X29504Y28200D01*
G01X29054Y29631D02*
G01X28986Y29563D01*
G01X28918Y29631D01*
G01X28986Y29700D01*
G01X29054Y29631D01*
G01X28986Y29154D02*
G01X28986Y28200D01*
G01X27650Y28950D02*
G01X27786Y29086D01*
G01X27922Y29154D01*
G01X28127Y29154D01*
G01X28263Y29086D01*
G01X28400Y28950D01*
G01X28468Y28745D01*
G01X28468Y28609D01*
G01X28400Y28404D01*
G01X28263Y28268D01*
G01X28127Y28200D01*
G01X27922Y28200D01*
G01X27786Y28268D01*
G01X27650Y28404D01*
G01X26150Y29631D02*
G01X26150Y28200D01*
G01X26150Y28200D02*
G01X25332Y28200D01*
G01X24882Y29631D02*
G01X24814Y29563D01*
G01X24745Y29631D01*
G01X24814Y29700D01*
G01X24882Y29631D01*
G01X24814Y29154D02*
G01X24814Y28200D01*
G01X23477Y28950D02*
G01X23613Y29086D01*
G01X23750Y29154D01*
G01X23954Y29154D01*
G01X24091Y29086D01*
G01X24227Y28950D01*
G01X24295Y28745D01*
G01X24295Y28609D01*
G01X24227Y28404D01*
G01X24091Y28268D01*
G01X23954Y28200D01*
G01X23750Y28200D01*
G01X23613Y28268D01*
G01X23477Y28404D01*
G01X23027Y28745D02*
G01X22209Y28745D01*
G01X22209Y28881D01*
G01X22277Y29018D01*
G01X22345Y29086D01*
G01X22482Y29154D01*
G01X22686Y29154D01*
G01X22822Y29086D01*
G01X22959Y28950D01*
G01X23027Y28745D01*
G01X23027Y28609D01*
G01X22959Y28404D01*
G01X22822Y28268D01*
G01X22686Y28200D01*
G01X22482Y28200D01*
G01X22345Y28268D01*
G01X22209Y28404D01*
G01X21759Y29154D02*
G01X21759Y28200D01*
G01X21759Y28881D02*
G01X21554Y29086D01*
G01X21418Y29154D01*
G01X21213Y29154D01*
G01X21077Y29086D01*
G01X21009Y28881D01*
G01X21009Y28200D01*
G01X19809Y28950D02*
G01X19877Y29086D01*
G01X20082Y29154D01*
G01X20286Y29154D01*
G01X20491Y29086D01*
G01X20559Y28950D01*
G01X20491Y28813D01*
G01X20354Y28745D01*
G01X20013Y28677D01*
G01X19877Y28609D01*
G01X19809Y28472D01*
G01X19809Y28404D01*
G01X19877Y28268D01*
G01X20082Y28200D01*
G01X20286Y28200D01*
G01X20491Y28268D01*
G01X20559Y28404D01*
G01X19359Y28745D02*
G01X18541Y28745D01*
G01X18541Y28881D01*
G01X18609Y29018D01*
G01X18677Y29086D01*
G01X18814Y29154D01*
G01X19018Y29154D01*
G01X19154Y29086D01*
G01X19291Y28950D01*
G01X19359Y28745D01*
G01X19359Y28609D01*
G01X19291Y28404D01*
G01X19154Y28268D01*
G01X19018Y28200D01*
G01X18814Y28200D01*
G01X18677Y28268D01*
G01X18541Y28404D01*
G01X16018Y29291D02*
G01X16086Y29427D01*
G01X16222Y29563D01*
G01X16359Y29631D01*
G01X16632Y29631D01*
G01X16768Y29563D01*
G01X16904Y29427D01*
G01X16973Y29291D01*
G01X17041Y29086D01*
G01X17041Y28745D01*
G01X16973Y28540D01*
G01X16904Y28404D01*
G01X16768Y28268D01*
G01X16632Y28200D01*
G01X16359Y28200D01*
G01X16222Y28268D01*
G01X16086Y28404D01*
G01X16018Y28540D01*
G01X16018Y28745D01*
G01X16359Y28745D02*
G01X16018Y28745D01*
G01X15568Y29631D02*
G01X15568Y28200D01*
G01X15568Y29631D02*
G01X14954Y29631D01*
G01X14750Y29563D01*
G01X14682Y29495D01*
G01X14613Y29359D01*
G01X14613Y29154D01*
G01X14682Y29018D01*
G01X14750Y28950D01*
G01X14954Y28881D01*
G01X15568Y28881D01*
G01X14164Y29631D02*
G01X14164Y28200D01*
G01X14164Y28200D02*
G01X13345Y28200D01*
G01X11845Y29154D02*
G01X11436Y28200D01*
G01X11027Y29154D02*
G01X11436Y28200D01*
G01X10509Y29291D02*
G01X10509Y29359D01*
G01X10441Y29495D01*
G01X10373Y29563D01*
G01X10236Y29631D01*
G01X9963Y29631D01*
G01X9827Y29563D01*
G01X9759Y29495D01*
G01X9691Y29359D01*
G01X9691Y29222D01*
G01X9759Y29086D01*
G01X9895Y28881D01*
G01X10577Y28200D01*
G01X9623Y28200D01*
G01X65298Y18588D02*
G01X65298Y17156D01*
G01X65298Y18588D02*
G01X64684Y18588D01*
G01X64479Y18519D01*
G01X64411Y18451D01*
G01X64343Y18315D01*
G01X64343Y18110D01*
G01X64411Y17974D01*
G01X64479Y17906D01*
G01X64684Y17838D01*
G01X65298Y17838D01*
G01X62870Y18247D02*
G01X62939Y18383D01*
G01X63075Y18519D01*
G01X63211Y18588D01*
G01X63484Y18588D01*
G01X63620Y18519D01*
G01X63757Y18383D01*
G01X63825Y18247D01*
G01X63893Y18042D01*
G01X63893Y17701D01*
G01X63825Y17497D01*
G01X63757Y17360D01*
G01X63620Y17224D01*
G01X63484Y17156D01*
G01X63211Y17156D01*
G01X63075Y17224D01*
G01X62939Y17360D01*
G01X62870Y17497D01*
G01X62420Y18588D02*
G01X62420Y17156D01*
G01X62420Y18588D02*
G01X61807Y18588D01*
G01X61602Y18519D01*
G01X61534Y18451D01*
G01X61466Y18315D01*
G01X61466Y18179D01*
G01X61534Y18042D01*
G01X61602Y17974D01*
G01X61807Y17906D01*
G01X62420Y17906D02*
G01X61807Y17906D01*
G01X61602Y17838D01*
G01X61534Y17769D01*
G01X61466Y17633D01*
G01X61466Y17429D01*
G01X61534Y17292D01*
G01X61602Y17224D01*
G01X61807Y17156D01*
G01X62420Y17156D01*
G01X59966Y18588D02*
G01X59966Y17156D01*
G01X59966Y18588D02*
G01X59489Y18588D01*
G01X59284Y18519D01*
G01X59148Y18383D01*
G01X59079Y18247D01*
G01X59011Y18042D01*
G01X59011Y17701D01*
G01X59079Y17497D01*
G01X59148Y17360D01*
G01X59284Y17224D01*
G01X59489Y17156D01*
G01X59966Y17156D01*
G01X58561Y17701D02*
G01X57743Y17701D01*
G01X57743Y17838D01*
G01X57811Y17974D01*
G01X57879Y18042D01*
G01X58016Y18110D01*
G01X58220Y18110D01*
G01X58357Y18042D01*
G01X58493Y17906D01*
G01X58561Y17701D01*
G01X58561Y17565D01*
G01X58493Y17360D01*
G01X58357Y17224D01*
G01X58220Y17156D01*
G01X58016Y17156D01*
G01X57879Y17224D01*
G01X57743Y17360D01*
G01X56543Y17906D02*
G01X56611Y18042D01*
G01X56816Y18110D01*
G01X57020Y18110D01*
G01X57225Y18042D01*
G01X57293Y17906D01*
G01X57225Y17769D01*
G01X57089Y17701D01*
G01X56748Y17633D01*
G01X56611Y17565D01*
G01X56543Y17429D01*
G01X56543Y17360D01*
G01X56611Y17224D01*
G01X56816Y17156D01*
G01X57020Y17156D01*
G01X57225Y17224D01*
G01X57293Y17360D01*
G01X56093Y18588D02*
G01X56025Y18519D01*
G01X55957Y18588D01*
G01X56025Y18656D01*
G01X56093Y18588D01*
G01X56025Y18110D02*
G01X56025Y17156D01*
G01X54689Y18110D02*
G01X54689Y17019D01*
G01X54757Y16815D01*
G01X54825Y16747D01*
G01X54961Y16679D01*
G01X55166Y16679D01*
G01X55302Y16747D01*
G01X54689Y17906D02*
G01X54825Y18042D01*
G01X54961Y18110D01*
G01X55166Y18110D01*
G01X55302Y18042D01*
G01X55439Y17906D01*
G01X55507Y17701D01*
G01X55507Y17565D01*
G01X55439Y17360D01*
G01X55302Y17224D01*
G01X55166Y17156D01*
G01X54961Y17156D01*
G01X54825Y17224D01*
G01X54689Y17360D01*
G01X54239Y18110D02*
G01X54239Y17156D01*
G01X54239Y17838D02*
G01X54034Y18042D01*
G01X53898Y18110D01*
G01X53693Y18110D01*
G01X53557Y18042D01*
G01X53489Y17838D01*
G01X53489Y17156D01*
G01X53039Y17701D02*
G01X52220Y17701D01*
G01X52220Y17838D01*
G01X52288Y17974D01*
G01X52357Y18042D01*
G01X52493Y18110D01*
G01X52698Y18110D01*
G01X52834Y18042D01*
G01X52970Y17906D01*
G01X53039Y17701D01*
G01X53039Y17565D01*
G01X52970Y17360D01*
G01X52834Y17224D01*
G01X52698Y17156D01*
G01X52493Y17156D01*
G01X52357Y17224D01*
G01X52220Y17360D01*
G01X50952Y18588D02*
G01X50952Y17156D01*
G01X50952Y17906D02*
G01X51089Y18042D01*
G01X51225Y18110D01*
G01X51429Y18110D01*
G01X51566Y18042D01*
G01X51702Y17906D01*
G01X51770Y17701D01*
G01X51770Y17565D01*
G01X51702Y17360D01*
G01X51566Y17224D01*
G01X51429Y17156D01*
G01X51225Y17156D01*
G01X51089Y17224D01*
G01X50952Y17360D01*
G01X49452Y18110D02*
G01X49452Y17429D01*
G01X49384Y17224D01*
G01X49248Y17156D01*
G01X49043Y17156D01*
G01X48907Y17224D01*
G01X48702Y17429D01*
G01X48702Y18110D02*
G01X48702Y17156D01*
G01X47502Y17906D02*
G01X47570Y18042D01*
G01X47775Y18110D01*
G01X47979Y18110D01*
G01X48184Y18042D01*
G01X48252Y17906D01*
G01X48184Y17769D01*
G01X48048Y17701D01*
G01X47707Y17633D01*
G01X47570Y17565D01*
G01X47502Y17429D01*
G01X47502Y17360D01*
G01X47570Y17224D01*
G01X47775Y17156D01*
G01X47979Y17156D01*
G01X48184Y17224D01*
G01X48252Y17360D01*
G01X47052Y18588D02*
G01X46984Y18519D01*
G01X46916Y18588D01*
G01X46984Y18656D01*
G01X47052Y18588D01*
G01X46984Y18110D02*
G01X46984Y17156D01*
G01X46466Y18110D02*
G01X46466Y17156D01*
G01X46466Y17838D02*
G01X46261Y18042D01*
G01X46125Y18110D01*
G01X45920Y18110D01*
G01X45784Y18042D01*
G01X45716Y17838D01*
G01X45716Y17156D01*
G01X44448Y18110D02*
G01X44448Y17019D01*
G01X44516Y16815D01*
G01X44584Y16747D01*
G01X44720Y16679D01*
G01X44925Y16679D01*
G01X45061Y16747D01*
G01X44448Y17906D02*
G01X44584Y18042D01*
G01X44720Y18110D01*
G01X44925Y18110D01*
G01X45061Y18042D01*
G01X45198Y17906D01*
G01X45266Y17701D01*
G01X45266Y17565D01*
G01X45198Y17360D01*
G01X45061Y17224D01*
G01X44925Y17156D01*
G01X44720Y17156D01*
G01X44584Y17224D01*
G01X44448Y17360D01*
G01X42948Y18588D02*
G01X42948Y17156D01*
G01X42948Y18588D02*
G01X42061Y18588D01*
G01X42948Y17906D02*
G01X42402Y17906D01*
G01X42948Y17156D02*
G01X42061Y17156D01*
G01X40793Y18110D02*
G01X40793Y17156D01*
G01X40793Y17906D02*
G01X40929Y18042D01*
G01X41066Y18110D01*
G01X41270Y18110D01*
G01X41407Y18042D01*
G01X41543Y17906D01*
G01X41611Y17701D01*
G01X41611Y17565D01*
G01X41543Y17360D01*
G01X41407Y17224D01*
G01X41270Y17156D01*
G01X41066Y17156D01*
G01X40929Y17224D01*
G01X40793Y17360D01*
G01X39593Y17906D02*
G01X39661Y18042D01*
G01X39866Y18110D01*
G01X40070Y18110D01*
G01X40275Y18042D01*
G01X40343Y17906D01*
G01X40275Y17769D01*
G01X40139Y17701D01*
G01X39798Y17633D01*
G01X39661Y17565D01*
G01X39593Y17429D01*
G01X39593Y17360D01*
G01X39661Y17224D01*
G01X39866Y17156D01*
G01X40070Y17156D01*
G01X40275Y17224D01*
G01X40343Y17360D01*
G01X39075Y18110D02*
G01X38666Y17156D01*
G01X38257Y18110D02*
G01X38666Y17156D01*
G01X38802Y16883D01*
G01X38939Y16747D01*
G01X39075Y16679D01*
G01X39143Y16679D01*
G01X37807Y18588D02*
G01X37807Y17156D01*
G01X37807Y18588D02*
G01X36920Y18588D01*
G01X37807Y17906D02*
G01X37261Y17906D01*
G01X37807Y17156D02*
G01X36920Y17156D01*
G01X36470Y18588D02*
G01X36470Y17156D01*
G01X36470Y18588D02*
G01X35993Y18588D01*
G01X35789Y18519D01*
G01X35652Y18383D01*
G01X35584Y18247D01*
G01X35516Y18042D01*
G01X35516Y17701D01*
G01X35584Y17497D01*
G01X35652Y17360D01*
G01X35789Y17224D01*
G01X35993Y17156D01*
G01X36470Y17156D01*
G01X34520Y18588D02*
G01X35066Y17156D01*
G01X34520Y18588D02*
G01X33975Y17156D01*
G01X34861Y17633D02*
G01X34179Y17633D01*
G01X32475Y17769D02*
G01X31248Y17769D01*
G01X29748Y18588D02*
G01X29748Y17156D01*
G01X29748Y17838D02*
G01X29543Y18042D01*
G01X29407Y18110D01*
G01X29202Y18110D01*
G01X29066Y18042D01*
G01X28998Y17838D01*
G01X28998Y17156D01*
G01X28343Y18588D02*
G01X28343Y17429D01*
G01X28275Y17224D01*
G01X28139Y17156D01*
G01X28002Y17156D01*
G01X28548Y18110D02*
G01X28070Y18110D01*
G01X27348Y18588D02*
G01X27348Y17429D01*
G01X27280Y17224D01*
G01X27143Y17156D01*
G01X27007Y17156D01*
G01X27552Y18110D02*
G01X27075Y18110D01*
G01X26557Y18110D02*
G01X26557Y16679D01*
G01X26557Y17906D02*
G01X26420Y18042D01*
G01X26284Y18110D01*
G01X26080Y18110D01*
G01X25943Y18042D01*
G01X25807Y17906D01*
G01X25739Y17701D01*
G01X25739Y17565D01*
G01X25807Y17360D01*
G01X25943Y17224D01*
G01X26080Y17156D01*
G01X26284Y17156D01*
G01X26420Y17224D01*
G01X26557Y17360D01*
G01X24539Y17906D02*
G01X24607Y18042D01*
G01X24811Y18110D01*
G01X25016Y18110D01*
G01X25220Y18042D01*
G01X25289Y17906D01*
G01X25220Y17769D01*
G01X25084Y17701D01*
G01X24743Y17633D01*
G01X24607Y17565D01*
G01X24539Y17429D01*
G01X24539Y17360D01*
G01X24607Y17224D01*
G01X24811Y17156D01*
G01X25016Y17156D01*
G01X25220Y17224D01*
G01X25289Y17360D01*
G01X24020Y17974D02*
G01X24089Y17906D01*
G01X24020Y17838D01*
G01X23952Y17906D01*
G01X24020Y17974D01*
G01X24020Y17497D02*
G01X24089Y17429D01*
G01X24020Y17360D01*
G01X23952Y17429D01*
G01X24020Y17497D01*
G01X22275Y18860D02*
G01X23502Y16679D01*
G01X20598Y18860D02*
G01X21825Y16679D01*
G01X20148Y17701D02*
G01X19329Y17701D01*
G01X19329Y17838D01*
G01X19398Y17974D01*
G01X19466Y18042D01*
G01X19602Y18110D01*
G01X19807Y18110D01*
G01X19943Y18042D01*
G01X20080Y17906D01*
G01X20148Y17701D01*
G01X20148Y17565D01*
G01X20080Y17360D01*
G01X19943Y17224D01*
G01X19807Y17156D01*
G01X19602Y17156D01*
G01X19466Y17224D01*
G01X19329Y17360D01*
G01X18061Y18110D02*
G01X18061Y17156D01*
G01X18061Y17906D02*
G01X18198Y18042D01*
G01X18334Y18110D01*
G01X18539Y18110D01*
G01X18675Y18042D01*
G01X18811Y17906D01*
G01X18880Y17701D01*
G01X18880Y17565D01*
G01X18811Y17360D01*
G01X18675Y17224D01*
G01X18539Y17156D01*
G01X18334Y17156D01*
G01X18198Y17224D01*
G01X18061Y17360D01*
G01X16861Y17906D02*
G01X16930Y18042D01*
G01X17134Y18110D01*
G01X17339Y18110D01*
G01X17543Y18042D01*
G01X17611Y17906D01*
G01X17543Y17769D01*
G01X17407Y17701D01*
G01X17066Y17633D01*
G01X16930Y17565D01*
G01X16861Y17429D01*
G01X16861Y17360D01*
G01X16930Y17224D01*
G01X17134Y17156D01*
G01X17339Y17156D01*
G01X17543Y17224D01*
G01X17611Y17360D01*
G01X16343Y18110D02*
G01X15934Y17156D01*
G01X15525Y18110D02*
G01X15934Y17156D01*
G01X16070Y16883D01*
G01X16207Y16747D01*
G01X16343Y16679D01*
G01X16411Y16679D01*
G01X15075Y17701D02*
G01X14257Y17701D01*
G01X14257Y17838D01*
G01X14325Y17974D01*
G01X14393Y18042D01*
G01X14530Y18110D01*
G01X14734Y18110D01*
G01X14870Y18042D01*
G01X15007Y17906D01*
G01X15075Y17701D01*
G01X15075Y17565D01*
G01X15007Y17360D01*
G01X14870Y17224D01*
G01X14734Y17156D01*
G01X14530Y17156D01*
G01X14393Y17224D01*
G01X14257Y17360D01*
G01X12989Y18588D02*
G01X12989Y17156D01*
G01X12989Y17906D02*
G01X13125Y18042D01*
G01X13261Y18110D01*
G01X13466Y18110D01*
G01X13602Y18042D01*
G01X13739Y17906D01*
G01X13807Y17701D01*
G01X13807Y17565D01*
G01X13739Y17360D01*
G01X13602Y17224D01*
G01X13466Y17156D01*
G01X13261Y17156D01*
G01X13125Y17224D01*
G01X12989Y17360D01*
G01X11720Y18110D02*
G01X11720Y17156D01*
G01X11720Y17906D02*
G01X11857Y18042D01*
G01X11993Y18110D01*
G01X12198Y18110D01*
G01X12334Y18042D01*
G01X12470Y17906D01*
G01X12539Y17701D01*
G01X12539Y17565D01*
G01X12470Y17360D01*
G01X12334Y17224D01*
G01X12198Y17156D01*
G01X11993Y17156D01*
G01X11857Y17224D01*
G01X11720Y17360D01*
G01X11202Y17497D02*
G01X11270Y17429D01*
G01X11202Y17360D01*
G01X11134Y17429D01*
G01X11202Y17497D01*
G01X9866Y17906D02*
G01X10002Y18042D01*
G01X10139Y18110D01*
G01X10343Y18110D01*
G01X10480Y18042D01*
G01X10616Y17906D01*
G01X10684Y17701D01*
G01X10684Y17565D01*
G01X10616Y17360D01*
G01X10480Y17224D01*
G01X10343Y17156D01*
G01X10139Y17156D01*
G01X10002Y17224D01*
G01X9866Y17360D01*
G01X9075Y18110D02*
G01X9211Y18042D01*
G01X9348Y17906D01*
G01X9416Y17701D01*
G01X9416Y17565D01*
G01X9348Y17360D01*
G01X9211Y17224D01*
G01X9075Y17156D01*
G01X8870Y17156D01*
G01X8734Y17224D01*
G01X8598Y17360D01*
G01X8530Y17565D01*
G01X8530Y17701D01*
G01X8598Y17906D01*
G01X8734Y18042D01*
G01X8870Y18110D01*
G01X9075Y18110D01*
G01X8080Y18110D02*
G01X8080Y17156D01*
G01X8080Y17838D02*
G01X7875Y18042D01*
G01X7739Y18110D01*
G01X7534Y18110D01*
G01X7398Y18042D01*
G01X7330Y17838D01*
G01X7330Y17156D01*
G01X7330Y17838D02*
G01X7125Y18042D01*
G01X6989Y18110D01*
G01X6784Y18110D01*
G01X6648Y18042D01*
G01X6580Y17838D01*
G01X6580Y17156D01*
M00*
M02*
