G04 ---------------------------- Layer name :TOP LAYER*
G04 EasyEDA v5.3.14, Thu, 29 Mar 2018 20:23:58 GMT*
G04 Gerber Generator version 0.2*
G04 Scale: 100 percent, Rotated: No, Reflected: No *
G04 Dimensions in millimeters *
G04 leading zeros omitted , absolute positions ,3 integer and 3 decimal *
%FSLAX33Y33*%
%MOMM*%
G90*
G71D02*

%ADD10C,0.254000*%
%ADD11R,1.880108X1.880108*%
%ADD12C,1.880108*%
%ADD13C,1.879600*%
%ADD14R,1.935480X2.194560*%
%ADD15C,0.904240*%

%LPD*%
G54D10*
G01X9279Y6820D02*
G01X9279Y9533D01*
G01X12314Y12567D01*
G01X15916Y12567D01*
G01X41722Y20309D02*
G01X41722Y22973D01*
G01X43749Y25000D01*
G01X43749Y26325D01*
G01X43835Y26410D01*
G01X62367Y4826D02*
G01X62367Y17510D01*
G01X63647Y18790D01*
G01X63699Y24401D01*
G01X62899Y25200D01*
G01X62885Y31490D01*
G01X39141Y20309D02*
G01X39141Y22936D01*
G01X41270Y25064D01*
G01X41270Y26385D01*
G01X41295Y26410D01*
G01X46883Y20309D02*
G01X46883Y24632D01*
G01X46375Y25140D01*
G01X46375Y26410D01*
G01X49464Y20309D02*
G01X49464Y24643D01*
G01X48890Y25217D01*
G01X48890Y26385D01*
G01X48915Y26410D01*
G01X52045Y20309D02*
G01X52045Y24653D01*
G01X51481Y25217D01*
G01X51481Y26385D01*
G01X51455Y26410D01*
G01X54625Y20309D02*
G01X54625Y24511D01*
G01X53995Y25140D01*
G01X53995Y26410D01*
G01X57206Y20309D02*
G01X57206Y24444D01*
G01X56586Y25064D01*
G01X56586Y26360D01*
G01X56535Y26410D01*
G01X59787Y20309D02*
G01X59787Y24378D01*
G01X59101Y25064D01*
G01X59101Y26385D01*
G01X59075Y26410D01*
G01X62367Y20309D02*
G01X62367Y24389D01*
G01X61615Y25140D01*
G01X61615Y26410D01*
G01X36561Y20309D02*
G01X36561Y22946D01*
G01X38755Y25140D01*
G01X38755Y26410D01*
G01X33980Y20309D02*
G01X33980Y22880D01*
G01X36241Y25140D01*
G01X36241Y26385D01*
G01X36215Y26410D01*
G01X31399Y20309D02*
G01X31399Y22890D01*
G01X33650Y25140D01*
G01X33650Y26385D01*
G01X33675Y26410D01*
G01X28819Y20309D02*
G01X28819Y22824D01*
G01X31135Y25140D01*
G01X31135Y26410D01*
G01X26238Y20309D02*
G01X26238Y22682D01*
G01X28621Y25064D01*
G01X28621Y26385D01*
G01X28595Y26410D01*
G01X23658Y20309D02*
G01X23658Y22768D01*
G01X26030Y25140D01*
G01X26030Y26385D01*
G01X26055Y26410D01*
G01X59787Y4826D02*
G01X59787Y17444D01*
G01X61082Y18740D01*
G01X61082Y24378D01*
G01X60320Y25140D01*
G01X60320Y31465D01*
G01X60345Y31490D01*
G01X57206Y4826D02*
G01X57206Y17454D01*
G01X58491Y18740D01*
G01X58491Y24302D01*
G01X57789Y25120D01*
G01X57805Y31490D01*
G01X57805Y31490D01*
G01X54625Y4826D02*
G01X54625Y17465D01*
G01X55900Y18740D01*
G01X55900Y24455D01*
G01X55299Y25101D01*
G01X55265Y31490D01*
G01X55265Y31490D01*
G01X52045Y4826D02*
G01X52045Y17703D01*
G01X53310Y18968D01*
G01X53310Y24607D01*
G01X52700Y25217D01*
G01X52700Y31465D01*
G01X52725Y31490D01*
G01X49464Y4826D02*
G01X49499Y9900D01*
G01X48699Y11101D01*
G01X48699Y16900D01*
G01X50795Y18892D01*
G01X50795Y24607D01*
G01X50185Y25217D01*
G01X50185Y31490D01*
G01X46883Y4826D02*
G01X46883Y17419D01*
G01X48204Y18740D01*
G01X48204Y24531D01*
G01X47671Y25064D01*
G01X47671Y31465D01*
G01X47645Y31490D01*
G01X44303Y4826D02*
G01X44303Y17429D01*
G01X45613Y18740D01*
G01X45613Y24531D01*
G01X45080Y25064D01*
G01X45080Y31465D01*
G01X45105Y31490D01*
G01X41722Y4826D02*
G01X41722Y17373D01*
G01X40432Y18663D01*
G01X40432Y23007D01*
G01X42579Y25120D01*
G01X42565Y31490D01*
G01X42565Y31490D01*
G01X33980Y4826D02*
G01X33980Y14726D01*
G01X37841Y18587D01*
G01X37841Y22854D01*
G01X40051Y25064D01*
G01X40051Y31465D01*
G01X40025Y31490D01*
G01X31399Y4826D02*
G01X31399Y6964D01*
G01X32812Y8376D01*
G01X32812Y16149D01*
G01X35250Y18587D01*
G01X35250Y22931D01*
G01X37460Y25140D01*
G01X37460Y31465D01*
G01X37485Y31490D01*
G01X28819Y4826D02*
G01X28819Y7127D01*
G01X30069Y8376D01*
G01X30069Y15996D01*
G01X32659Y18587D01*
G01X32659Y22854D01*
G01X34945Y25140D01*
G01X34945Y31490D01*
G01X26238Y4826D02*
G01X26238Y7137D01*
G01X27478Y8376D01*
G01X27478Y16073D01*
G01X30069Y18663D01*
G01X30069Y22854D01*
G01X32438Y25120D01*
G01X32405Y31490D01*
G01X32405Y31490D01*
G01X32405Y31490D01*
G01X23658Y4826D02*
G01X23658Y7071D01*
G01X24963Y8376D01*
G01X24963Y16073D01*
G01X27554Y18663D01*
G01X27554Y22854D01*
G01X29840Y25140D01*
G01X29840Y31465D01*
G01X29865Y31490D01*
G01X44242Y30215D02*
G01X44242Y30215D01*
G01X21077Y4826D02*
G01X21100Y6801D01*
G01X22200Y8201D01*
G01X22199Y16300D01*
G01X24963Y18511D01*
G01X24963Y22778D01*
G01X27325Y25140D01*
G01X27325Y31490D01*
G01X21077Y20309D02*
G01X21077Y22854D01*
G01X18562Y25369D01*
G01X5151Y25369D01*
G01X1798Y22016D01*
G01X15916Y20309D02*
G01X14800Y22200D01*
G01X6980Y22169D01*
G01X18486Y20309D02*
G01X18486Y21854D01*
G01X17038Y23693D01*
G01X6066Y23693D01*
G01X4389Y22092D01*
G01X6980Y14549D02*
G01X6980Y7061D01*
G01X6739Y6820D01*
G01X4389Y14472D02*
G01X4389Y7010D01*
G01X4199Y6820D01*
G01X1798Y14396D02*
G01X1798Y6959D01*
G01X1659Y6820D01*
G54D11*
G01X62884Y31488D03*
G54D12*
G01X61615Y26410D03*
G01X60345Y31490D03*
G01X59075Y26410D03*
G01X57805Y31490D03*
G01X56535Y26410D03*
G01X55265Y31490D03*
G01X53995Y26410D03*
G01X52725Y31490D03*
G01X51455Y26410D03*
G01X50185Y31490D03*
G01X48915Y26410D03*
G01X47645Y31490D03*
G01X46375Y26410D03*
G01X45105Y31490D03*
G01X43835Y26410D03*
G01X42565Y31490D03*
G01X41295Y26410D03*
G01X40025Y31490D03*
G01X38755Y26410D03*
G01X37485Y31490D03*
G01X36215Y26410D03*
G01X34945Y31490D03*
G01X33675Y26410D03*
G01X32405Y31490D03*
G01X31135Y26410D03*
G01X29865Y31490D03*
G01X28595Y26410D03*
G01X27325Y31490D03*
G01X26055Y26410D03*
G54D13*
G01X1798Y14549D03*
G01X1798Y22169D03*
G01X4389Y14549D03*
G01X4389Y22169D03*
G01X6980Y14549D03*
G01X6980Y22169D03*
G54D14*
G01X64948Y4826D03*
G01X62367Y4826D03*
G01X59787Y4826D03*
G01X57206Y4826D03*
G01X54625Y4826D03*
G01X52045Y4826D03*
G01X49464Y4826D03*
G01X46883Y4826D03*
G01X44303Y4826D03*
G01X41722Y4826D03*
G01X39141Y4826D03*
G01X36561Y4826D03*
G01X33980Y4826D03*
G01X31399Y4826D03*
G01X28819Y4826D03*
G01X26238Y4826D03*
G01X23658Y4826D03*
G01X21077Y4826D03*
G01X18496Y4826D03*
G01X15916Y4826D03*
G01X15916Y9987D03*
G01X15916Y12567D03*
G01X15916Y15148D03*
G01X15916Y20309D03*
G01X18496Y20309D03*
G01X21077Y20309D03*
G01X23658Y20309D03*
G01X26238Y20309D03*
G01X28819Y20309D03*
G01X31399Y20309D03*
G01X33980Y20309D03*
G01X36561Y20309D03*
G01X39141Y20309D03*
G01X41722Y20309D03*
G01X44303Y20309D03*
G01X46883Y20309D03*
G01X49464Y20309D03*
G01X52045Y20309D03*
G01X54625Y20309D03*
G01X57206Y20309D03*
G01X59787Y20309D03*
G01X62367Y20309D03*
G01X64948Y20309D03*
G01X31399Y9987D03*
G01X28819Y9987D03*
G01X26238Y9987D03*
G01X23658Y9987D03*
G01X31399Y12567D03*
G01X28819Y12567D03*
G01X26238Y12567D03*
G01X23658Y12567D03*
G01X23658Y15148D03*
G54D15*
G01X49850Y13213D03*
G01X49850Y11922D03*
G54D11*
G01X9279Y6820D03*
G54D12*
G01X6739Y6819D03*
G01X4199Y6819D03*
G01X1659Y6819D03*
M00*
M02*
